<?xml version="1.0" encoding="UTF-8"?>
<svg xmlns="http://www.w3.org/2000/svg" version="1.1" xmlns:xlink="http://www.w3.org/1999/xlink" viewBox="0 0 491.5 491.5">
  <!-- Generator: Adobe Illustrator 29.5.0, SVG Export Plug-In . SVG Version: 2.1.0 Build 137)  -->
  <defs>
    <style>
      .st0 {
        fill: url(#linear-gradient2);
      }

      .st1 {
        fill: #fff;
      }

      .st2 {
        fill: url(#linear-gradient1);
      }

      .st3 {
        fill: url(#linear-gradient9);
      }

      .st4 {
        fill: url(#linear-gradient8);
      }

      .st5 {
        fill: url(#linear-gradient7);
      }

      .st6 {
        fill: url(#linear-gradient4);
      }

      .st7 {
        fill: url(#linear-gradient5);
      }

      .st8 {
        fill: url(#linear-gradient3);
      }

      .st9 {
        display: none;
      }

      .st10 {
        fill: none;
        stroke: #d9d9d9;
        stroke-miterlimit: 10;
        stroke-width: 10px;
      }

      .st11 {
        fill: url(#linear-gradient6);
      }

      .st12 {
        fill: url(#linear-gradient);
      }
    </style>
    <linearGradient id="linear-gradient" x1="285.8" y1="188.4" x2="427.8" y2="188.4" gradientUnits="userSpaceOnUse">
      <stop offset="0" stop-color="#fff"/>
      <stop offset="0" stop-color="#eff6f4"/>
      <stop offset="0" stop-color="#c6deda"/>
      <stop offset=".2" stop-color="#a1cac2"/>
      <stop offset=".3" stop-color="#83b8ae"/>
      <stop offset=".3" stop-color="#6aaa9e"/>
      <stop offset=".5" stop-color="#569f91"/>
      <stop offset=".6" stop-color="#499788"/>
      <stop offset=".7" stop-color="#419383"/>
      <stop offset="1" stop-color="#3f9282"/>
    </linearGradient>
    <linearGradient id="linear-gradient1" x1="192.8" y1="215.1" x2="318.9" y2="215.1" gradientUnits="userSpaceOnUse">
      <stop offset="0" stop-color="#fff"/>
      <stop offset="0" stop-color="#e2edf5"/>
      <stop offset=".1" stop-color="#b9d4e8"/>
      <stop offset=".2" stop-color="#94bedc"/>
      <stop offset=".3" stop-color="#76abd2"/>
      <stop offset=".4" stop-color="#5d9cca"/>
      <stop offset=".5" stop-color="#4990c4"/>
      <stop offset=".6" stop-color="#3c88c0"/>
      <stop offset=".7" stop-color="#3483bd"/>
      <stop offset="1" stop-color="#3282bd"/>
    </linearGradient>
    <linearGradient id="linear-gradient2" x1="292" y1="202.1" x2="344.3" y2="202.1" gradientUnits="userSpaceOnUse">
      <stop offset="0" stop-color="#fff"/>
      <stop offset="0" stop-color="#eff6f4"/>
      <stop offset="0" stop-color="#c6deda"/>
      <stop offset=".2" stop-color="#a1cac2"/>
      <stop offset=".3" stop-color="#83b8ae"/>
      <stop offset=".4" stop-color="#6aaa9e"/>
      <stop offset=".5" stop-color="#569f91"/>
      <stop offset=".6" stop-color="#499788"/>
      <stop offset=".7" stop-color="#419383"/>
      <stop offset="1" stop-color="#3f9282"/>
    </linearGradient>
    <linearGradient id="linear-gradient3" x1="298.8" y1="188.4" x2="346.7" y2="188.4" xlink:href="#linear-gradient2"/>
    <linearGradient id="linear-gradient4" x1="305" y1="174.6" x2="349.1" y2="174.6" xlink:href="#linear-gradient2"/>
    <linearGradient id="linear-gradient5" x1="286.3" y1="285.3" x2="328.5" y2="285.3" xlink:href="#linear-gradient2"/>
    <linearGradient id="linear-gradient6" x1="289.6" y1="271.4" x2="331.4" y2="271.4" xlink:href="#linear-gradient2"/>
    <linearGradient id="linear-gradient7" x1="292.5" y1="257.3" x2="334.2" y2="257.3" xlink:href="#linear-gradient2"/>
    <linearGradient id="linear-gradient8" x1="283.4" y1="298.5" x2="326.1" y2="298.5" xlink:href="#linear-gradient2"/>
    <linearGradient id="linear-gradient9" x1="228.3" y1="338.1" x2="338.5" y2="338.1" gradientUnits="userSpaceOnUse">
      <stop offset="0" stop-color="#000"/>
      <stop offset=".2" stop-color="#020202"/>
      <stop offset=".3" stop-color="#0a0a0a"/>
      <stop offset=".4" stop-color="#171717"/>
      <stop offset=".4" stop-color="#2b2b2b"/>
      <stop offset=".5" stop-color="#444"/>
      <stop offset=".6" stop-color="#626262"/>
      <stop offset=".6" stop-color="#878787"/>
      <stop offset=".7" stop-color="#b0b0b0"/>
      <stop offset=".7" stop-color="#d9d9d9"/>
      <stop offset=".7" stop-color="#dadada" stop-opacity="1"/>
      <stop offset=".8" stop-color="#ddd" stop-opacity=".9"/>
      <stop offset=".8" stop-color="#e3e3e3" stop-opacity=".7"/>
      <stop offset=".9" stop-color="#ebebeb" stop-opacity=".5"/>
      <stop offset=".9" stop-color="#f5f5f5" stop-opacity=".3"/>
      <stop offset="1" stop-color="#fff" stop-opacity="0"/>
    </linearGradient>
  </defs>
  <g id="Layer_2" class="st9">
    <path d="M290.1,331.4l2.4,1.7-1,.2c.1,1.7.8,3.7-.5,5l1,.7-1.4.5,4.3.5-71,.3v-25.9c6.8-.3,13.6-.3,20.4-.3s9.7,0,14.4,0c14.3,0,28.9.8,43.4.5.1.8-1.1.4-1.7.5-1.2,0-2.4,0-3.6,0,.2,2.3.8,4.8-.5,7l-45.7.7-2.7,8.2h50.8v.5h-8.6Z"/>
  </g>
  <g id="Layer_1">
    <path class="st12" d="M295.9,247.9c.4-1.5,1.2-8.8,2.2-9.1,5.2,1.2,10.6,0,15.7,0,25.4-.4,50.8,1.8,76-1.9,1-1.1-2.7-1.4-3.1-1.4-5.7-.8-11.6,0-17.2-1h-70.8s1.4-9.6,1.4-9.6h79.4c6.8-.8,13.8-.6,20.6-1.4s3.3-.2,3.1-1.2c-.6-.8-1.3-.7-2.1-.8-20.9-1.7-41.5-1-62.3-.9s-35.3,0-53,0l4.2-9c17.2,0,34.5-.2,51.7,0,16.4,0,32.9.6,49.4-.4l21.8-1.5v-1.4s-24.9-1.2-24.9-1.2c2.9-2.5,4.9-5.7,6.3-9.3l22.1-1.5.8-1.2c-.7-.4-1.8-.6-2.6-.7-6-.5-12.9,0-18.9-.5l1-10.1c7.3,0,14.6-.2,21.8-1.4l.3-1.5-22.5-1c-.8-3.6-2.1-7.1-4.4-10l26.4-.5-.2-1.5-.6-.4c-12.3-1.1-24.7.4-36.8-2.5h-68.8s4.2-8.6,4.2-8.6h78.1s18.9-1.9,18.9-1.9l-1.2-1.4c-31.2-3-62.4-1.1-93.7-1.4l4.1-8.6,1-.5c26.8,0,53.6.4,80.3-1.4l-.8-1.3-14.3-1.5h-63.6s4.8-9.8,4.8-9.8l49.2-.3c66.7-3.3,59.9,94.2,13,115.7-17.5,8-56.1,4.6-76.3,4.2s-13,.1-19.4,0Z"/>
    <path class="st2" d="M318.9,128l-44.3,96-8.5,78.1h-35l1.5-11,27.3-1.5v-1.9s-27.3-1-27.3-1l1.5-10.5c8.9.6,17.6,0,26.5-.6.8-.2,1.2-2,.5-2.3-8.8-1.2-17.7-1.1-26.5-1.4l.7-9.6c.7-.9,15.3-.3,17.8-.4s8.7-.8,9.3-1.2.4-1.5.9-1.9l-27.8-1.2,1-10.1,21.3-.5c2-.8,7.8.1,6.7-2.9-9.2-.7-18.3-1.2-27.6-1l1-9.6c3.3-.4,27.4-.4,27.8-1.7v-1.7c-9.7-.9-19.6-1.5-29.3-1.2l-3.8-9.9c12.3-.1,24.7.5,36.9-1.5v-2.3c-12.1-1.1-24.4-1.4-36.7-1s-1.4.2-2.1.5l-3.4-10.1c3.8.4,7.6-.4,11.2-.5,8.5-.2,17.6.7,25.9-.5s5.3,0,5.5-3.3c-14.8-2.4-29.8-1.1-44.8-1.4l-4.2-10.1h36l-3.2-6.7-44.9-.5-4.1-10h44.6l-3.2-6.7-48.8-.5-4.6-10.5h48.4l-3.7-7.2h-18.3s-4.4-10.5-4.4-10.5l31.1-.4,22.8,49.3,26.1-57.1h24Z"/>
    <path d="M180.8,287.2c0-4.6,0-9.3,0-13.9h-40.8v-12.9h-26.1l-.7-.7v-12.2h26.9v-13.4h25.9v-13.4l17.3-.5v-13.4h-16.1c-.1,0-.4.6-.7.5v-26.9h14.9v12h16.3v27.6c0,1.4,16.1,0,16.6.7.3.3.3,13.1.2,13.4h-33.6v26.9h15.3v-13.4h27.3v25.9h-25.4v13.9c-5.8-1.1-11.5,0-17.3,0,0,4.1,0,8.3,0,12.5l29.7-.5v-12.5h12.7c1.1.7.2,1,.2,1.2v10.5c0,.1.6.4.5.7h-12.5v30.7h-13.9v20.9c-.1,0-.7.7-.7.7h-30.5v-64.7c2.9.9,6.3.2,9.4.1s3.6.4,5,.3ZM166.4,247.4h-14.4v13.4h13.7c1.1-.7.2-1,.2-1.2v-11.5c0-.1.7-.5.5-.7ZM197.1,313.6h-16.3v16.8h16.3v-16.8Z"/>
    <path d="M88.2,287.2h64.7c.3,21.5-.8,42.8-.5,64.3l-64.3.5v-64.7ZM140.5,298.3l-40.3.5v41.7h40.3v-42.2Z"/>
    <path d="M153,128v64.7h-64.7v-64.7h64.7ZM141,139.5h-40.8v41.7h40l.7-.7v-41Z"/>
    <polygon points="113.2 220.1 100.7 220.1 100.7 234 88.2 234 88.2 207.2 113.2 207.9 113.2 220.1"/>
    <path class="st0" d="M292,206.7l4.3-9.1c.7.3,1.3.5,2.1.5,15.3.5,30.6-.4,45.8-.5l-1.4,9.1h-50.8Z"/>
    <polygon class="st8" points="346.7 184.1 345.2 192.7 298.8 192.3 302.1 184.1 346.7 184.1"/>
    <polygon class="st6" points="349.1 169.8 347.7 179 347 179.4 305 178.9 309.3 169.8 349.1 169.8"/>
    <polygon class="st7" points="328.5 280.5 327 290.1 286.3 290.1 288.2 281 328.5 280.5"/>
    <path class="st11" d="M331.4,266.6c-.4,1.4-1.4,9.4-2.2,9.6h-39.5s2.2-9.2,2.2-9.2l39.5-.4Z"/>
    <polygon class="st5" points="292.5 261.8 294.9 252.9 314.8 252.7 334.2 252.7 332.1 261.8 292.5 261.8"/>
    <polygon class="st4" points="326.1 294.9 324.6 302.1 283.4 302.1 285.6 294.9 326.1 294.9"/>
    <path d="M180.8,128v13.9h-14.4v-13.9c.5-.2,1.1.5,1.2.5h12.5c.1,0,.4-.6.7-.5Z"/>
    <path d="M180.8,154.9v12.9h-14.4v-13.4c.4-.1.6.5.7.5h13.7Z"/>
    <path d="M126.1,220.1c0-1.9-.4-12.1.5-12.7l12.5-.2v12.9c-4.3,0-8.6-.1-12.9,0,0,4.6,0,9.3,0,13.9h-12.9v-13.4c4.3.2,8.6-.4,12.9-.5Z"/>
    <rect x="152.5" y="207.2" width="13.4" height="12.9"/>
    <path d="M101.2,260.9c.2.2-.5.6-.5.7v11c0,.1.7.7.5,1.2h-12.9v-12.9h12.9Z"/>
    <path class="st1" d="M166.4,247.4c.2.2-.5.6-.5.7v11.5c0,.2.9.5-.2,1.2h-13.7v-13.4h14.4Z"/>
    <path class="st1" d="M140.5,298.3v42.2h-40.3v-41.7l40.3-.5ZM130.4,308.8h-20.1v21.1h20.1v-21.1Z"/>
    <path class="st1" d="M141,139.5v41l-.7.7h-40v-41.7h40.8ZM130.4,150.1h-20.1v21.1h20.1v-21.1Z"/>
    <rect class="st1" x="180.8" y="313.6" width="16.3" height="16.8"/>
    <rect x="110.3" y="308.8" width="20.1" height="21.1"/>
    <rect x="110.3" y="150.1" width="20.1" height="21.1"/>
    <image width="929" height="293" transform="translate(121.5 525.3) scale(.3)" xlink:href="YP-logo-1.png"/>
    <path class="st10" d="M341.5,250.7v105c0,9.3-7.6,16.9-16.9,16.9H88.4c-9.3,0-16.9-7.6-16.9-16.9V119.4c0-9.3,7.6-16.9,16.9-16.9h236.2c9.3,0,16.9,7.6,16.9,16.9v5.9"/>
    <polygon class="st3" points="228.3 325.3 228.3 351.3 338.5 351.5 338.5 340.9 251.8 340.9 254.9 333 324.8 333 324.8 324.6 228.3 325.3"/>
  </g>
</svg>